PathFileType	4	(X/Y/Z)	OpenSim_Sub07_CSBaseline_Magnet.trc
DataRate	CameraRate	NumFrames	NumMarkers	Units	OrigDataRate	OrigDataStartFrame	OrigNumFrames
100	100	30	8	m	100	2921	7788
Frame#	Time	torso_imu_offset_imu	pelvis_imu_offset_imu	tibia_r_imu_offset_imu	femur_r_imu_offset_imu	tibia_l_imu_offset_imu	femur_l_imu_offset_imu	toes_r_imu_offset_imu	toes_l_imu_offset_imu
				X1	Y1	Z1	X2	Y2	Z2	X3	Y3	Z3	X4	Y4	Z4	X5	Y5	Z5	X6	Y6	Z6	X7	Y7	Z7	X8		Y8	Z8	

2921	29.20000000	0.93507259	0.20829452	0.00163923	-0.71888824	0.21513407	-0.58555030	-0.63213742	-0.50318748	0.18458031	-0.83239945	-0.22106738	-0.00754088	-0.18324561	0.82507019	0.00880193	-0.64130450	-0.21830182	0.13095467	-0.65731208	-0.32590676	-0.31025331	-0.69303210	-0.13237929	0.42433475
2922	29.21000000	0.93333284	0.20727091	0.00189693	-0.71846009	0.20813376	-0.58394332	-0.62821510	-0.51008084	0.18651415	-0.83337841	-0.22524033	-0.01008663	-0.16458529	0.82292531	-0.01470340	-0.65112605	-0.22673230	0.12530571	-0.65482327	-0.32143926	-0.30570758	-0.67784524	-0.11452304	0.45280932
2923	29.22000000	0.93195548	0.20329308	-0.00207580	-0.72092483	0.20822038	-0.58349277	-0.62159303	-0.51289918	0.19277799	-0.83482124	-0.23744906	-0.00405253	-0.14903093	0.82408867	-0.04271103	-0.65535020	-0.23614760	0.11862260	-0.65442502	-0.32275342	-0.30945765	-0.65709830	-0.09795859	0.48738807
2924	29.23000000	0.93234842	0.20088851	0.00177404	-0.72307861	0.20938849	-0.58843251	-0.62007806	-0.51160499	0.19521507	-0.82956420	-0.24834786	-0.00352309	-0.14164014	0.82035035	-0.06103788	-0.65994276	-0.23580793	0.11046485	-0.64668253	-0.32322545	-0.30628620	-0.64221467	-0.06932599	0.50502865
2925	29.24000000	0.93618577	0.20131033	0.00447317	-0.72460513	0.20225015	-0.59015243	-0.62029904	-0.51567032	0.19944636	-0.82281206	-0.25301449	-0.00436335	-0.13471018	0.82407383	-0.07897038	-0.65749360	-0.23959574	0.10057460	-0.64468451	-0.32552427	-0.30422355	-0.66170413	-0.03057747	0.49170998
2926	29.25000000	0.93667033	0.20285817	0.00993674	-0.72345196	0.19754482	-0.58658455	-0.61340347	-0.52251485	0.20208533	-0.82305230	-0.25822645	0.00236223	-0.12955020	0.82417128	-0.09809360	-0.66143037	-0.24854893	0.10174004	-0.64587724	-0.31954824	-0.30303263	-0.67702412	0.00039083	0.46928137
2927	29.26000000	0.92900622	0.19701284	0.00723348	-0.72231030	0.19691132	-0.58411542	-0.60938807	-0.51923713	0.19756943	-0.82067027	-0.26706683	0.00729751	-0.12680197	0.82022336	-0.12085125	-0.66772680	-0.25279881	0.10013275	-0.64790090	-0.32715841	-0.30213046	-0.70434448	0.02157033	0.44030584
2928	29.27000000	0.93126737	0.19773253	0.01465328	-0.72465367	0.18703756	-0.59154605	-0.60620130	-0.52691610	0.19500093	-0.81649430	-0.27481304	0.00371402	-0.12328268	0.81693788	-0.14250800	-0.67523546	-0.26617081	0.08976768	-0.63757131	-0.32578588	-0.30178065	-0.72141561	0.04257344	0.41305337
2929	29.28000000	0.93157641	0.19376078	0.01463462	-0.72587678	0.18128857	-0.59324773	-0.60535585	-0.52911695	0.20231058	-0.80910628	-0.28015120	0.00383133	-0.12776126	0.81177501	-0.16120389	-0.68083134	-0.27446050	0.08926272	-0.63765338	-0.32378751	-0.30491102	-0.73632027	0.05601268	0.39026636
2930	29.29000000	0.93195027	0.18783482	0.01367367	-0.72569235	0.17362691	-0.59554522	-0.60082426	-0.52962235	0.19451059	-0.81141207	-0.28916166	0.00427024	-0.13884192	0.80681365	-0.18022068	-0.67741077	-0.28154400	0.08580757	-0.63283437	-0.32387635	-0.30209250	-0.74840500	0.06659188	0.36162135
2931	29.30000000	0.93718542	0.18831080	0.01568683	-0.72977377	0.17622613	-0.58874144	-0.60048042	-0.53566443	0.20004809	-0.81331984	-0.30260689	0.00227727	-0.15533435	0.79882947	-0.20064387	-0.67986562	-0.28772007	0.08284077	-0.62715483	-0.32264336	-0.30398896	-0.76549995	0.07877257	0.32855665
2932	29.31000000	0.93297565	0.19190925	0.01609407	-0.73458277	0.17212842	-0.59268862	-0.60115208	-0.53888752	0.19953618	-0.80741705	-0.30580913	0.00167170	-0.16877390	0.79565370	-0.21453646	-0.68542482	-0.30175182	0.08623523	-0.62858944	-0.33034500	-0.30713917	-0.77999080	0.08590161	0.29219616
2933	29.32000000	0.93036379	0.19100543	0.02172955	-0.73404022	0.16543732	-0.59146259	-0.59618122	-0.53948936	0.19838282	-0.80184328	-0.31103230	-0.00540665	-0.18222802	0.78026355	-0.22234594	-0.68591399	-0.30984371	0.08771686	-0.62330773	-0.33206308	-0.30745261	-0.79133942	0.08387825	0.25594996
2934	29.33000000	0.93428015	0.18774412	0.02388740	-0.73680117	0.16445756	-0.59406520	-0.59212577	-0.54554269	0.19447008	-0.80011795	-0.32298522	-0.00213727	-0.21015758	0.77670786	-0.22265243	-0.68658917	-0.31631587	0.08310922	-0.61932722	-0.33532788	-0.31330660	-0.80514822	0.08139867	0.21671931
2935	29.34000000	0.93664519	0.18530356	0.02308346	-0.73339762	0.16244196	-0.59080737	-0.59179663	-0.54550858	0.20055380	-0.79697700	-0.32770901	-0.01069829	-0.23635024	0.77298951	-0.21623610	-0.68754900	-0.32887270	0.07952974	-0.61559646	-0.33510437	-0.31696425	-0.81728333	0.06943068	0.18143967
2936	29.35000000	0.93028514	0.18746792	0.02713203	-0.72703347	0.15132040	-0.59506990	-0.59184820	-0.55286380	0.20560897	-0.79340189	-0.33577397	-0.01682862	-0.25744402	0.77186395	-0.18809193	-0.68869500	-0.33339021	0.08882442	-0.61373220	-0.33826523	-0.31498511	-0.82803083	0.05809136	0.14683463
2937	29.36000000	0.93035674	0.18765992	0.02654729	-0.73322327	0.15362281	-0.59444750	-0.58957030	-0.55226030	0.19919695	-0.78925637	-0.34402887	-0.01503816	-0.28449119	0.77649154	-0.14271885	-0.69198197	-0.34001314	0.09126625	-0.61101536	-0.34143022	-0.31831098	-0.83315954	0.04628273	0.10584781
2938	29.37000000	0.93715491	0.18956096	0.02634481	-0.73119091	0.15101557	-0.59937735	-0.59264944	-0.55480859	0.20434439	-0.78610697	-0.35035148	-0.02613857	-0.30894331	0.76627308	-0.09946503	-0.68743080	-0.34938283	0.08441555	-0.60648309	-0.34102058	-0.32710120	-0.83026805	0.03175576	0.07567376
2939	29.38000000	0.93405630	0.18862764	0.02785814	-0.72790330	0.14639295	-0.60257292	-0.58617738	-0.55719041	0.20519804	-0.78746352	-0.36108446	-0.02519159	-0.34038508	0.75693117	-0.06559374	-0.68471334	-0.35418483	0.08286614	-0.60745200	-0.34465910	-0.33704195	-0.83322504	0.00781710	0.04511615
2940	29.39000000	0.93531011	0.18704994	0.03112913	-0.72935900	0.14576789	-0.59947506	-0.58242286	-0.56156746	0.20011152	-0.77893274	-0.36153460	-0.02802677	-0.37497829	0.74764889	-0.04015633	-0.68743730	-0.35862502	0.08120060	-0.61154239	-0.34987994	-0.33892225	-0.83141089	-0.01234742	0.01451990
2941	29.40000000	0.93344425	0.18737849	0.02744567	-0.72176204	0.14212599	-0.60419614	-0.58403384	-0.56582742	0.20295419	-0.77812724	-0.36919494	-0.03720122	-0.40638901	0.72885979	-0.02550444	-0.69008654	-0.36120206	0.08082629	-0.60633382	-0.35266715	-0.34607233	-0.82563056	-0.03655527	-0.01246437
2942	29.41000000	0.93537874	0.18697211	0.02822278	-0.72096083	0.14256063	-0.60323858	-0.58143526	-0.56926025	0.20312201	-0.77389566	-0.37959422	-0.03825754	-0.44157530	0.71094590	-0.02019847	-0.68869122	-0.37121414	0.07915570	-0.60543595	-0.35819438	-0.35165589	-0.82724493	-0.05749310	-0.03838974
2943	29.42000000	0.93934026	0.18838111	0.03402523	-0.71979305	0.13827926	-0.60348647	-0.57839752	-0.57209269	0.20554492	-0.76895584	-0.38479575	-0.03772340	-0.46936566	0.69034172	-0.01180649	-0.68477640	-0.37121572	0.07929679	-0.60886395	-0.35977427	-0.35893650	-0.82233128	-0.07681521	-0.07937137
2944	29.43000000	0.93282242	0.19176154	0.03212355	-0.72699220	0.13398886	-0.60730176	-0.57543239	-0.57526212	0.20426971	-0.76849309	-0.39408883	-0.04496314	-0.49481009	0.66747074	-0.00791464	-0.68813082	-0.37272072	0.07979244	-0.61114518	-0.36582359	-0.36538775	-0.81408453	-0.09172638	-0.10456839
2945	29.44000000	0.93575770	0.18671230	0.03607847	-0.72310738	0.13678951	-0.60905537	-0.57383642	-0.58001436	0.20326788	-0.76196670	-0.39828201	-0.04729247	-0.52497277	0.64296510	-0.00940296	-0.68212665	-0.37186431	0.08231761	-0.61289139	-0.37230183	-0.37285420	-0.80538932	-0.09897898	-0.13447490
2946	29.45000000	0.93039056	0.17983193	0.04169207	-0.72284862	0.13542020	-0.60583916	-0.56790935	-0.58426774	0.20637323	-0.75490375	-0.40323905	-0.04330674	-0.55043134	0.61956817	-0.00849018	-0.67920035	-0.36791456	0.08409039	-0.62155392	-0.37504718	-0.38473403	-0.79799757	-0.11428754	-0.15930263
2947	29.46000000	0.93340001	0.18236731	0.03828528	-0.72384924	0.13432017	-0.61193207	-0.56992102	-0.58431620	0.20296723	-0.75377231	-0.40712183	-0.04491990	-0.57718301	0.59717175	-0.00584155	-0.68068930	-0.37098590	0.08294793	-0.62307778	-0.38098739	-0.38734776	-0.78729617	-0.13227957	-0.18237383
2948	29.47000000	0.93185281	0.18487098	0.04251393	-0.72260131	0.13689955	-0.61524052	-0.56888667	-0.59397191	0.19569234	-0.75028683	-0.41820438	-0.05125839	-0.60174411	0.56808051	-0.01088540	-0.68128286	-0.36200006	0.08196834	-0.62131879	-0.38518008	-0.39434671	-0.77627060	-0.13498024	-0.21053753
2949	29.48000000	0.93089462	0.18242799	0.04276320	-0.72409003	0.13453669	-0.60908473	-0.55954521	-0.59360732	0.19786295	-0.74629618	-0.42875186	-0.04908004	-0.62766371	0.53580729	-0.01250689	-0.68215481	-0.35938491	0.08389848	-0.62420965	-0.39181968	-0.39815756	-0.76803402	-0.14268941	-0.23987227
2950	29.49000000	0.93341444	0.18339633	0.04441653	-0.72130985	0.12885070	-0.60457007	-0.55537366	-0.59963293	0.19379026	-0.74377213	-0.43678584	-0.05368748	-0.65165387	0.50687288	-0.00584700	-0.68508265	-0.36223119	0.08907837	-0.63278858	-0.39774784	-0.40715794	-0.76104385	-0.15121870	-0.26846774
